#!OML:ASF \\sashay\E\Suitcase\Project 1\Capture day 1\Session 1\Male1.ASF
:FULLY-SPECIFIED
:DEGREES
423
root 0.948376 17.3823 -13.2 5.73152 3.06092 -6.84499
lowerback 2.66118 0.393447 4.61161
upperback -0.862529 0.780753 3.83503
thorax -2.37638 0.35137 1.32716
lowerneck -17.3898 -0.27537 -2.39548
upperneck 18.861 0.0390706 1.0588
head 8.76716 -0.0388498 0.760568
rclavicle -3.42904e-015 -1.47101e-014
rhumerus -31.145 -29.5222 -66.5821
rradius 21.2017
rwrist -2.96846
rhand -16.0636 20.6761
rfingers 7.12502
rthumb 10.1388 -9.05964
lclavicle -3.42904e-015 -1.47101e-014
lhumerus -34.7344 0.849144 86.3309
lradius 44.3177
lwrist -3.1831
lhand 0.610722 45.2544
lfingers 7.12502
lthumb 26.1752 73.4698
rfemur 10.5246 3.95441 33.3199
rtibia 2.8625e-014
rfoot -9.51599 -8.91983
rtoes 11.945
lfemur -35.7114 -4.58503 -11.6063
ltibia 25.4465
lfoot -14.0241 0.232031
ltoes 2.18277
424
root 0.956348 17.3847 -13.0922 5.94485 2.79688 -6.45036
lowerback 2.63079 0.461501 4.07826
upperback -0.987173 0.85449 3.71949
thorax -2.49201 0.393057 1.50201
lowerneck -17.122 -0.320141 -2.38653
upperneck 18.9863 -0.0751388 1.25131
head 8.76366 -0.0720162 0.810453
rclavicle -8.94531e-015 -1.51076e-014
rhumerus -31.3871 -28.8874 -66.651
rradius 21.574
rwrist -3.38262
rhand -15.9953 21.2263
rfingers 7.12502
rthumb 10.2047 -8.50618
lclavicle -8.94531e-015 -1.51076e-014
lhumerus -34.807 1.04583 86.2826
lradius 43.9559
lwrist -3.05332
lhand -1.78151 42.1135
lfingers 7.12502
lthumb 23.8829 70.6486
rfemur 10.8072 4.05173 32.8707
rtibia -3.49861e-014
rfoot -9.58206 -8.81022
rtoes 10.2195
lfemur -35.9354 -5.15249 -11.7352
ltibia 24.5656
lfoot -14.4493 1.05229
ltoes 0.761323
425
root 0.978309 17.3839 -12.9782 6.21613 2.53677 -6.64342
lowerback 2.40331 0.429718 4.17675
upperback -1.01943 0.803965 3.83012
thorax -2.39795 0.368111 1.56528
lowerneck -17.3852 -0.315519 -2.26164
upperneck 19.1357 -0.0347974 0.974532
head 8.86176 -0.0746244 0.701716
rclavicle -6.85807e-015 -3.33958e-014
rhumerus -30.9876 -28.7881 -66.7545
rradius 21.5457
rwrist -3.2699
rhand -15.9618 21.48
rfingers 7.12502
rthumb 10.237 -8.25087
lclavicle -6.85807e-015 -3.33958e-014
lhumerus -34.947 1.45103 86.145
lradius 43.683
lwrist -2.90439
lhand -1.45321 42.2751
lfingers 7.12502
lthumb 24.1977 70.7686
rfemur 10.933 4.22689 32.9704
rtibia -2.54444e-014
rfoot -9.49274 -8.69341
rtoes 10.4942
lfemur -36.2338 -5.4837 -11.3327
ltibia 23.8793
lfoot -14.6513 1.66107
ltoes -0.158957
426
root 0.984415 17.3758 -12.8692 6.26174 2.49277 -6.83892
lowerback 2.31108 0.465395 4.32081
upperback -1.05174 0.851978 3.84443
thorax -2.37765 0.389984 1.4983
lowerneck -17.4241 -0.294552 -2.53003
upperneck 19.1913 -0.00923548 1.32063
head 8.88708 -0.0446046 0.867647
rclavicle 1.71949e-014 -3.57812e-015
rhumerus -31.071 -29.6582 -66.2609
rradius 21.2542
rwrist -2.39218
rhand -15.8082 21.5655
rfingers 7.12502
rthumb 10.3852 -8.15803
lclavicle 1.71949e-014 -3.57812e-015
lhumerus -34.9387 1.83995 86.0806
lradius 43.2419
lwrist -3.16894
lhand -1.33373 42.7352
lfingers 7.12502
lthumb 24.3123 71.2133
rfemur 11.2658 4.13372 33.1816
rtibia -6.36111e-015
rfoot -9.7004 -8.55866
rtoes 10.4111
lfemur -36.3273 -5.42751 -11.1104
ltibia 23.3868
lfoot -14.8735 1.44256
ltoes -0.898519
427
root 1.00394 17.3746 -12.7558 6.42313 2.3154 -6.52208
lowerback 2.2534 0.60562 4.12861
upperback -1.22793 1.0313 3.53731
thorax -2.52289 0.476835 1.28097
lowerneck -16.8434 -0.292549 -2.51062
upperneck 19.0195 -0.151632 1.88444
head 8.72593 -0.0493234 1.0362
rclavicle -5.36719e-015 7.95139e-016
rhumerus -31.656 -29.6369 -66.1695
rradius 21.5721
rwrist -2.65616
rhand -15.3846 22.5007
rfingers 7.12502
rthumb 10.7938 -7.20196
lclavicle -5.36719e-015 7.95139e-016
lhumerus -35.2415 1.6153 85.8388
lradius 42.7995
lwrist -3.36023
lhand 0.956806 46.8991
lfingers 7.12502
lthumb 26.5065 75.065
rfemur 11.5437 4.15056 32.7491
rtibia -1.27222e-014
rfoot -9.61231 -8.42849
rtoes 9.82225
lfemur -36.4485 -5.54372 -11.4401
ltibia 23.163
lfoot -15.0507 1.87617
ltoes -1.44607
428
root 1.0269 17.3645 -12.6513 6.67532 1.94077 -6.51227
lowerback 2.32669 0.640647 4.13069
upperback -1.3759 1.0905 3.51334
thorax -2.71612 0.502583 1.25144
lowerneck -17.2786 -0.247877 -2.3495
upperneck 19.4099 -0.040271 1.50563
head 8.93595 -0.0267059 0.897943
rclavicle 2.48481e-015 7.55382e-015
rhumerus -31.4781 -29.988 -66.0085
rradius 21.3004
rwrist -2.11029
rhand -15.0993 23.1244
rfingers 7.12502
rthumb 11.069 -6.56369
lclavicle 2.48481e-015 7.55382e-015
lhumerus -35.6944 1.59716 85.7882
lradius 42.8994
lwrist -3.26385
lhand -0.817563 43.522
lfingers 7.12502
lthumb 24.8071 71.933
rfemur 11.624 4.41434 32.5915
rtibia 6.36111e-015
rfoot -9.49342 -8.28038
rtoes 9.17112
lfemur -36.7074 -5.46536 -11.4628
ltibia 23.1835
lfoot -14.9989 2.1266
ltoes -0.220887
429
root 1.03833 17.3505 -12.5392 6.767 1.92435 -6.77929
lowerback 2.07699 0.611172 4.21031
upperback -1.29357 1.03499 3.63691
thorax -2.49201 0.478097 1.33981
lowerneck -17.3432 -0.215534 -1.99064
upperneck 19.6421 -0.00041326 1.09848
head 9.02711 -0.0270096 0.705739
rclavicle 1.21259e-014 -5.08889e-014
rhumerus -31.289 -29.2088 -66.2831
rradius 21.6329
rwrist -2.88416
rhand -14.7788 23.2229
rfingers 7.12502
rthumb 11.3781 -6.44837
lclavicle 1.21259e-014 -5.08889e-014
lhumerus -35.5023 2.12217 85.7068
lradius 42.3014
lwrist -3.24448
lhand -1.62558 42.0468
lfingers 7.12502
lthumb 24.0325 70.5622
rfemur 11.9099 4.32076 32.8249
rtibia -3.49861e-014
rfoot -9.47208 -8.04434
rtoes 8.33587
lfemur -36.8335 -4.91922 -11.4577
ltibia 23.3093
lfoot -14.4987 1.53572
ltoes -1.92697
430
root 1.05372 17.3341 -12.4165 6.72413 1.6861 -7.11218
lowerback 1.81907 0.664378 4.45449
upperback -1.06451 1.08401 3.7671
thorax -2.10862 0.50638 1.33956
lowerneck -17.598 -0.155095 -2.84502
upperneck 19.2923 0.112541 2.03747
head 8.94874 0.0681175 1.18122
rclavicle -2.98177e-016 7.95139e-016
rhumerus -30.9607 -29.6235 -66.1936
rradius 21.7112
rwrist -2.36411
rhand -14.6774 24.1991
rfingers 7.12502
rthumb 11.4759 -5.46676
lclavicle -2.98177e-016 7.95139e-016
lhumerus -35.109 2.73937 85.6092
lradius 41.3492
lwrist -3.85304
lhand -1.72364 41.1302
lfingers 7.12502
lthumb 23.9384 69.6579
rfemur 12.4761 4.41667 33.138
rtibia 6.36111e-015
rfoot -9.40636 -7.85256
rtoes 6.79959
lfemur -36.689 -4.61513 -11.2879
ltibia 23.535
lfoot -14.133 1.73758
ltoes -2.75599
431
root 1.06772 17.3254 -12.3007 6.67795 1.67017 -7.07559
lowerback 2.13113 0.637046 4.44044
upperback -1.25649 1.0781 3.62861
thorax -2.48003 0.495901 1.20069
lowerneck -17.4507 -0.132324 -2.11941
upperneck 19.634 0.091445 1.36492
head 9.04169 0.0360575 0.830156
rclavicle -8.77137e-015 5.28767e-014
rhumerus -31.5949 -29.9467 -65.8406
rradius 21.8616
rwrist -1.78783
rhand -14.1211 24.2823
rfingers 7.12502
rthumb 12.0124 -5.35296
lclavicle -8.77137e-015 5.28767e-014
lhumerus -35.7582 2.79628 85.3404
lradius 41.3325
lwrist -3.90651
lhand -0.628927 43.1319
lfingers 7.12502
lthumb 24.9878 71.5179
rfemur 12.9283 4.26445 33.0143
rtibia -6.36111e-015
rfoot -9.38065 -7.56961
rtoes 7.61929
lfemur -36.5295 -4.27985 -11.5713
ltibia 23.8177
lfoot -13.6902 0.949981
ltoes -3.00364
432
root 1.09328 17.322 -12.1859 6.66275 1.42254 -6.72979
lowerback 2.31346 0.7247 4.0807
upperback -1.35651 1.19766 3.47404
thorax -2.68775 0.556917 1.23409
lowerneck -17.3487 -0.0884334 -1.92349
upperneck 19.748 0.0842339 1.41507
head 9.0625 0.0525406 0.814334
rclavicle 2.08724e-015 3.02153e-014
rhumerus -31.9076 -29.4335 -65.828
rradius 22.2193
rwrist -2.01614
rhand -14.3329 24.7365
rfingers 7.12502
rthumb 11.8081 -4.91057
lclavicle 2.08724e-015 3.02153e-014
lhumerus -36.0288 3.02542 85.2136
lradius 40.7217
lwrist -4.26916
lhand -0.935019 42.8005
lfingers 7.12502
lthumb 24.6945 71.2269
rfemur 13.4012 4.31498 32.5069
rtibia 3.18055e-015
rfoot -9.24113 -7.41196
rtoes 6.33046
lfemur -36.2607 -4.37649 -12.0269
ltibia 24.1033
lfoot -13.3239 0.881484
ltoes -2.90259
433
root 1.10413 17.3097 -12.0565 6.63721 1.11187 -6.87714
lowerback 2.01895 0.789409 3.93501
upperback -1.09396 1.2486 3.62457
thorax -2.25672 0.592969 1.47335
lowerneck -17.4778 -0.185361 -1.9809
upperneck 19.5023 -0.0379738 1.44622
head 9.00356 -0.00458743 0.817826
rclavicle -9.98893e-015 0
rhumerus -31.5951 -29.2872 -65.8495
rradius 22.4264
rwrist -1.92793
rhand -13.8449 24.8749
rfingers 7.12502
rthumb 12.2787 -4.74465
lclavicle -9.98893e-015 0
lhumerus -35.9757 3.58366 85.2171
lradius 40.4801
lwrist -4.5624
lhand -0.755675 43.0275
lfingers 7.12502
lthumb 24.8664 71.4303
rfemur 13.919 4.46798 32.5945
rtibia -2.8625e-014
rfoot -9.1137 -7.25196
rtoes 6.30208
lfemur -35.9438 -4.1242 -11.9323
ltibia 24.3709
lfoot -13.5662 0.129749
ltoes -1.8051
434
root 1.12293 17.2969 -11.9364 6.58608 0.779231 -6.89841
lowerback 2.19066 0.867695 3.99026
upperback -1.15291 1.3673 3.5377
thorax -2.41049 0.6483 1.34538
lowerneck -17.4268 -0.161711 -2.15571
upperneck 19.7364 -0.0297799 1.75281
head 9.07458 0.0193476 0.95418
rclavicle -1.75427e-014 -1.51076e-014
rhumerus -31.7635 -28.7514 -65.9129
rradius 22.5971
rwrist -2.37752
rhand -13.3828 25.4222
rfingers 7.12502
rthumb 12.7241 -4.17013
lclavicle -1.75427e-014 -1.51076e-014
lhumerus -36.1705 3.69223 85.028
lradius 39.8948
lwrist -4.68321
lhand -0.878136 43.0944
lfingers 7.12502
lthumb 24.749 71.5133
rfemur 14.4289 4.62482 32.538
rtibia -9.54166e-015
rfoot -8.71972 -7.05415
rtoes 5.03229
lfemur -35.5213 -4.07504 -11.9374
ltibia 24.5802
lfoot -13.2744 -0.283415
ltoes -2.49445
